<mxfile host="app.diagrams.net" modified="2023-05-09T10:38:35.282Z" agent="Mozilla/5.0 (Macintosh; Intel Mac OS X 10_15_7) AppleWebKit/537.36 (KHTML, like Gecko) Chrome/109.0.0.0 Safari/537.36" version="21.2.9" etag="gASvspAmi02oxmPb9lsK" type="github">
  <diagram name="ページ1" id="c89rZmjO9Y4wzAut_t7V">
    <mxGraphModel>
      <root>
        <mxCell id="0" />
        <mxCell id="1" parent="0" />
      </root>
    </mxGraphModel>
  </diagram>
</mxfile>
